<?xml version='1.0' encoding='iso-8859-1'?>
<svg xmlns="http://www.w3.org/2000/svg" viewBox="0 0 560 380" width="560" height="380" preserveAspectRatio="xMidYMid meet" style="width: 100%; height: 100%;"><defs><clipPath id="animationMask_6urcpsUp2F"><rect width="560" height="380" x="0" y="0"></rect></clipPath><mask id="ly_pmPs4fnZm2" mask-type="alpha"><g style="display: block;" transform="matrix(-1,0,0,1,651,-107.5)" opacity="0.99"><g mask="url(#stms_5flSrjBbpN)"><rect width="842" height="595" fill="#ffffff"></rect></g></g></mask><path d="" fill-opacity="1"></path><clipPath id="1jQMhJoRVG"></clipPath><mask id="ly_XQaBp8p14e" mask-type="alpha"><g style="display: block;" transform="matrix(1,0,0,1,-141,-107.5)" opacity="0.99"><g mask="url(#stms_3ff6ymBElH)"><rect width="842" height="595" fill="#ffffff"></rect></g></g></mask><path d="" fill-opacity="1"></path><clipPath id="Kt8dEi6VH5"></clipPath><mask id="ly_MNfT6CRrsx" mask-type="alpha"><g style="display: block;" transform="matrix(-1,0,0,1,651,-107.5)" opacity="0.99"><g mask="url(#stms_UyywqKy2Nh)"><rect width="842" height="595" fill="#ffffff"></rect></g></g></mask><path d="" fill-opacity="1"></path><clipPath id="PyrsXkk5Ad"></clipPath><mask id="ly_VOQCq89jEG" mask-type="alpha"><g style="display: block;" transform="matrix(1,0,0,1,-141,-107.5)" opacity="0.99"><g mask="url(#stms_N2zCrGKsoM)"><rect width="842" height="595" fill="#ffffff"></rect></g></g></mask><path d="" fill-opacity="1"></path><clipPath id="BtWQbNOiKy"></clipPath><mask id="ly_7xLbqYA9Q9" mask-type="alpha"><g style="display: block;" transform="matrix(-1,0,0,1,651,-107.5)" opacity="0.99"><g mask="url(#stms_jYlkNUGE9Z)"><rect width="842" height="595" fill="#ffffff"></rect></g></g></mask><path d="" fill-opacity="1"></path><clipPath id="wsetzgrOHa"></clipPath><mask id="ly_NOPXNAWoVW" mask-type="alpha"><g transform="matrix(1,0,0,1,-141,-107.5)" opacity="0.99" style="display: none;"><g mask="url(#stms_DCBiq1BvMy)"><rect width="842" height="595" fill="#ffffff"></rect></g></g></mask><path d="" fill-opacity="1"></path><clipPath id="5CHvXEnKTv"></clipPath><mask id="stms_DCBiq1BvMy" mask-type="alpha"><g fill="none" stroke-linecap="round" stroke-dashoffset="1" stroke="#fff" stroke-width="59" opacity="1"><path d=" M289,286 C258,302 163,313 161,216 C159,119 234,108 287,140 C340,172 520,296 520,296" stroke-dasharray="0 0 0 648.6396484375 0 6486.396484375 0 0"></path></g></mask><mask id="stms_jYlkNUGE9Z" mask-type="alpha"><g fill="none" stroke-linecap="round" stroke-dashoffset="1" stroke="#fff" stroke-width="59" opacity="1"><path d=" M289,286 C258,302 163,313 161,216 C159,119 234,108 287,140 C340,172 519,296 519,296" stroke-dasharray="0 0 0 647.8110961914062 0 6478.1109619140625 0 0"></path></g></mask><mask id="stms_N2zCrGKsoM" mask-type="alpha"><g fill="none" stroke-linecap="round" stroke-dashoffset="1" stroke="#fff" stroke-width="59" opacity="1"><path d=" M289,286 C258,302 163,313 161,216 C159,119 234,108 287,140 C340,172 532,305 532,305" stroke-dasharray="0 0 0 663.6210327148438 0 6636.2103271484375 0 0"></path></g></mask><mask id="stms_UyywqKy2Nh" mask-type="alpha"><g fill="none" stroke-linecap="round" stroke-dashoffset="1" stroke="#fff" stroke-width="59" opacity="1"><path d=" M289,286 C258,302 163,313 161,216 C159,119 234,108 287,140 C340,172 526,301 526,301" stroke-dasharray="0 0 0 656.410400390625 0 6564.10400390625 0 0"></path></g></mask><mask id="stms_3ff6ymBElH" mask-type="alpha"><g fill="none" stroke-linecap="round" stroke-dashoffset="1" stroke="#fff" stroke-width="59" opacity="1"><path d=" M289,286 C258,302 163,313 161,216 C159,119 234,108 287,140 C340,172 490,279 490,279" stroke-dasharray="1 8.85"></path></g></mask><mask id="stms_5flSrjBbpN" mask-type="alpha"><g fill="none" stroke-linecap="round" stroke-dashoffset="1" stroke="#fff" stroke-width="59" opacity="1"><path d=" M289,286 C258,302 163,313 161,216 C159,119 234,108 287,140 C340,172 490,279 490,279" stroke-dasharray="1 8.85"></path></g></mask></defs><g clip-path="url(#animationMask_6urcpsUp2F)"><g class="certx-text" style="user-select: none; display: block;" transform="matrix(1,0,0,1,-170.5,-106.5)" opacity="1"><g opacity="1" transform="matrix(1,0,0,1,320.148,425.424)"><path style="display: block;" fill="rgb(27,55,91)" fill-opacity="1" d="M0 0 M36.827,-56.388 C36.827,-56.388 36.827,-39.491 36.827,-39.491 C36.827,-39.491 -18.092,-39.491 -18.092,-39.491 C-18.092,-39.491 -18.092,-9.737 -18.092,-9.737 C-18.092,-9.737 31.682,-9.737 31.682,-9.737 C31.682,-9.737 31.682,6.979 31.682,6.979 C31.682,6.979 -18.092,6.979 -18.092,6.979 C-18.092,6.979 -18.092,39.306 -18.092,39.306 C-18.092,39.306 36.827,39.306 36.827,39.306 C36.827,39.306 36.827,56.388 36.827,56.388 C36.827,56.388 -36.827,56.388 -36.827,56.388 C-36.827,56.388 -36.827,-56.388 -36.827,-56.388 C-36.827,-56.388 36.827,-56.388 36.827,-56.388z"></path></g><g opacity="1" transform="matrix(1,0,0,1,422.121,425.424)"><path style="display: block;" fill="rgb(27,55,91)" fill-opacity="1" d="M0 0 M-23.786,10.653 C-23.786,10.653 -23.786,56.387 -23.786,56.387 C-23.786,56.387 -42.887,56.387 -42.887,56.387 C-42.887,56.387 -42.887,-56.388 -42.887,-56.388 C-42.887,-56.388 0.641,-56.388 0.641,-56.388 C23.969,-56.388 39.03,-44.632999999999996 39.03,-22.593 C39.03,-3.6750000000000007 28.009999999999998,7.161 10.193,9.918 C10.193,9.918 42.888,56.387 42.888,56.387 C42.888,56.387 21.213,56.387 21.213,56.387 C21.213,56.387 -10.194,10.653 -10.194,10.653 C-10.194,10.653 -23.786,10.653 -23.786,10.653zM0 0 M-23.786,-5.327 C-23.786,-5.327 0.275,-5.327 0.275,-5.327 C12.950000000000001,-5.327 20.111,-12.124 20.111,-22.593 C20.111,-33.062 12.950000000000001,-39.859 0.275,-39.859 C0.275,-39.859 -23.786,-39.859 -23.786,-39.859 C-23.786,-39.859 -23.786,-5.327 -23.786,-5.327z"></path></g><g opacity="1" transform="matrix(1,0,0,1,516.864,425.424)"><path style="display: block;" fill="rgb(27,55,91)" fill-opacity="1" d="M0 0 M-47.02,-56.388 C-47.02,-56.388 47.02,-56.388 47.02,-56.388 C47.02,-56.388 47.02,-39.491 47.02,-39.491 C47.02,-39.491 9.552,-39.491 9.552,-39.491 C9.552,-39.491 9.552,56.388 9.552,56.388 C9.552,56.388 -9.549,56.388 -9.549,56.388 C-9.549,56.388 -9.549,-39.491 -9.549,-39.491 C-9.549,-39.491 -47.02,-39.491 -47.02,-39.491 C-47.02,-39.491 -47.02,-56.388 -47.02,-56.388z"></path></g><g opacity="1" transform="matrix(1,0,0,1,621.198,425.424)"><path style="display: block;" fill="rgb(27,55,91)" fill-opacity="1" d="M0 0 M10.745,-1.471 C10.745,-1.471 50.785,56.387 50.785,56.387 C50.785,56.387 28.928,56.387 28.928,56.387 C28.928,56.387 -0.276,13.96 -0.276,13.96 C-0.276,13.96 -29.482,56.387 -29.482,56.387 C-29.482,56.387 -50.786,56.387 -50.786,56.387 C-50.786,56.387 -10.929,-1.102 -10.929,-1.102 C-10.929,-1.102 -48.948,-56.388 -48.948,-56.388 C-48.948,-56.388 -27.094,-56.388 -27.094,-56.388 C-27.094,-56.388 0.091,-16.531 0.091,-16.531 C0.091,-16.531 27.826,-56.388 27.826,-56.388 C27.826,-56.388 48.948,-56.388 48.948,-56.388 C48.948,-56.388 10.745,-1.471 10.745,-1.471z"></path></g><g opacity="1" transform="matrix(1,0,0,1,221.709,425.425)"><path style="display: block;" fill="rgb(27,55,91)" fill-opacity="1" d="M0 0 M12.307,-58.224 C-19.101999999999997,-58.224 -42.245,-34.714 -42.245,0 C-42.245,34.714 -19.101999999999997,58.224 12.307,58.224 C24.979,58.224 34.897,54.549 42.245,48.487 C42.245,48.487 42.245,48.453 42.245,48.453 C42.245,48.453 36.707,33.237 36.707,33.237 C29.407,38.503 21.706000000000003,40.958 12.489,40.958 C-8.998999999999999,40.958 -22.958,24.06 -22.958,0 C-22.958,-24.245 -8.998999999999999,-41.142 12.489,-41.142 C21.709000000000003,-41.142 29.411,-38.568 36.713,-33.254 C36.713,-33.254 42.245,-48.452 42.245,-48.452 C42.245,-48.452 42.245,-48.491 42.245,-48.491 C34.897,-54.553 24.979,-58.224 12.307,-58.224z"></path></g></g><g class="swiss-flag" style="user-select: none; display: block;" transform="matrix(1,0,0,1,108.5,-157.5)" opacity="1"><g opacity="1" transform="matrix(1,0,0,1,425.964,425.49)"><path style="display: block;" fill="rgb(225,6,19)" fill-opacity="1" d="M0 0 M22.556,22.556 C22.556,22.556 -22.557,22.556 -22.557,22.556 C-22.557,22.556 -22.557,-22.557 -22.557,-22.557 C-22.557,-22.557 22.556,-22.557 22.556,-22.557 C22.556,-22.557 22.556,22.556 22.556,22.556z"></path></g><g opacity="1" transform="matrix(1,0,0,1,425.963,425.49)"><path style="display: block;" fill="rgb(255,255,255)" fill-opacity="1" d="M0 0 M14.553,-4.366 C14.553,-4.366 4.366,-4.366 4.366,-4.366 C4.366,-4.366 4.366,-14.542 4.366,-14.542 C4.366,-14.542 -4.365,-14.542 -4.365,-14.542 C-4.365,-14.542 -4.365,-4.366 -4.365,-4.366 C-4.365,-4.366 -14.552,-4.366 -14.552,-4.366 C-14.552,-4.366 -14.552,4.366 -14.552,4.366 C-14.552,4.366 -4.365,4.366 -4.365,4.366 C-4.365,4.366 -4.365,14.542 -4.365,14.542 C-4.365,14.542 4.366,14.542 4.366,14.542 C4.366,14.542 4.366,4.366 4.366,4.366 C4.366,4.366 14.553,4.366 14.553,4.366 C14.553,4.366 14.553,-4.366 14.553,-4.366z"></path></g></g><g mask="url(#ly_NOPXNAWoVW)"><g class="gauche1" transform="matrix(1,0,0,1,-141,-108)" opacity="1" style="user-select: none; display: none;"><g opacity="1" transform="matrix(1,0,0,1,396.39,213.209)"><path fill="rgb(27,55,92)" fill-opacity="1" d="M0 0 M0,17.705 C0,17.705 85.822,77.062 85.822,77.062 C85.921,77.131 86.019,77.19600000000001 86.12,77.266 C86.12,77.266 96.414,48.978 96.414,48.978 C96.414,48.978 25.598,0 25.598,0 C25.598,0 0,-17.704 0,-17.704 C0,-17.704 -85.822,-77.064 -85.822,-77.064 C-85.922,-77.13199999999999 -86.01899999999999,-77.197 -86.118,-77.266 C-86.118,-77.266 -96.414,-48.98 -96.414,-48.98 C-96.414,-48.98 -25.599,0 -25.599,0 C-25.599,0 0,17.705 0,17.705z" style="display: none;"></path></g><g opacity="1" transform="matrix(1,0,0,1,218.581,213.211)"><path fill="rgb(27,55,92)" fill-opacity="1" d="M0 0 M65.303,59.129 C52.315,68.496 38.616,72.865 22.218,72.865 C-16.011,72.865 -40.843,42.805 -40.843,0 C-40.843,-43.134 -16.011,-73.194 22.218,-73.194 C38.620999999999995,-73.194 52.32299999999999,-68.615 65.314,-59.16 C65.314,-59.16 75.156,-86.2 75.156,-86.2 C75.156,-86.2 75.156,-86.267 75.156,-86.267 C62.083000000000006,-97.05199999999999 44.438,-103.583 21.894,-103.583 C-33.984,-103.583 -75.157,-61.758 -75.157,0 C-75.157,61.757 -33.984,103.583 21.894,103.583 C44.438,103.583 62.083000000000006,97.04599999999999 75.156,86.261 C75.156,86.261 75.156,86.2 75.156,86.2" style="display: none;"></path></g></g></g><g mask="url(#ly_7xLbqYA9Q9)"><g class="droite1" style="user-select: none; display: block;" transform="matrix(1,0,0,1,-141,-108)" opacity="1"><g opacity="1" transform="matrix(1,0,0,1,396.388,213.209)"><path style="display: block;" fill="rgb(27,55,92)" fill-opacity="1" d="M0 0 M25.599,0.001 C25.599,0.001 96.413,-48.979 96.413,-48.979 C96.413,-48.979 86.12,-77.265 86.12,-77.265 C86.02000000000001,-77.196 85.922,-77.132 85.823,-77.063 C85.823,-77.063 0.001,-17.704 0.001,-17.704 C0.001,-17.704 -25.597,0.001 -25.597,0.001 C-25.597,0.001 -96.413,48.98 -96.413,48.98 C-96.413,48.98 -86.118,77.265 -86.118,77.265 C-86.018,77.196 -85.92099999999999,77.131 -85.82,77.063 C-85.82,77.063 0.001,17.706 0.001,17.706 C0.001,17.706 25.599,0.001 25.599,0.001z"></path></g><g opacity="1" transform="matrix(1,0,0,1,574.198,213.21)"><path style="display: block;" fill="rgb(27,55,92)" fill-opacity="1" d="M0 0 M-21.894,103.583 C33.984,103.583 75.156,61.757 75.156,0 C75.156,-61.758 33.984,-103.583 -21.894,-103.583 C-44.439,-103.583 -62.08200000000001,-97.046 -75.156,-86.262 C-75.156,-86.262 -75.156,-86.2 -75.156,-86.2 C-75.156,-86.2 -65.303,-59.129 -65.303,-59.129 C-52.315,-68.497 -38.618,-72.866 -22.219,-72.866 C16.009,-72.866 40.843,-42.805 40.843,0 C40.843,43.133 16.009,73.194 -22.219,73.194 C-38.623000000000005,73.194 -52.32299999999999,68.614 -65.314,59.159 C-65.314,59.159 -75.156,86.2 -75.156,86.2 C-75.156,86.2 -75.156,86.267 -75.156,86.267 C-62.08200000000001,97.051 -44.439,103.583 -21.894,103.583z"></path></g></g></g><g mask="url(#ly_VOQCq89jEG)"><g class="gauche2" style="user-select: none; display: block;" transform="matrix(1,0,0,1,-141,-108)" opacity="1"><g opacity="1" transform="matrix(1,0,0,1,396.39,213.209)"><path style="display: block;" fill="rgb(27,55,92)" fill-opacity="1" d="M0 0 M0,17.705 C0,17.705 85.822,77.062 85.822,77.062 C85.921,77.131 86.019,77.19600000000001 86.12,77.266 C86.12,77.266 96.414,48.978 96.414,48.978 C96.414,48.978 25.598,0 25.598,0 C25.598,0 0,-17.704 0,-17.704 C0,-17.704 -85.822,-77.064 -85.822,-77.064 C-85.922,-77.13199999999999 -86.01899999999999,-77.197 -86.118,-77.266 C-86.118,-77.266 -96.414,-48.98 -96.414,-48.98 C-96.414,-48.98 -25.599,0 -25.599,0 C-25.599,0 0,17.705 0,17.705z"></path></g><g opacity="1" transform="matrix(1,0,0,1,218.581,213.211)"><path style="display: block;" fill="rgb(27,55,92)" fill-opacity="1" d="M0 0 M65.303,59.129 C52.315,68.496 38.616,72.865 22.218,72.865 C-16.011,72.865 -40.843,42.805 -40.843,0 C-40.843,-43.134 -16.011,-73.194 22.218,-73.194 C38.620999999999995,-73.194 52.32299999999999,-68.615 65.314,-59.16 C65.314,-59.16 75.156,-86.2 75.156,-86.2 C75.156,-86.2 75.156,-86.267 75.156,-86.267 C62.083000000000006,-97.05199999999999 44.438,-103.583 21.894,-103.583 C-33.984,-103.583 -75.157,-61.758 -75.157,0 C-75.157,61.757 -33.984,103.583 21.894,103.583 C44.438,103.583 62.083000000000006,97.04599999999999 75.156,86.261 C75.156,86.261 75.156,86.2 75.156,86.2"></path></g></g></g><g mask="url(#ly_MNfT6CRrsx)"><g class="droite2" style="user-select: none; display: block;" transform="matrix(1,0,0,1,-141,-108)" opacity="1"><g opacity="1" transform="matrix(1,0,0,1,396.388,213.209)"><path style="display: block;" fill="rgb(27,55,92)" fill-opacity="1" d="M0 0 M25.599,0.001 C25.599,0.001 96.413,-48.979 96.413,-48.979 C96.413,-48.979 86.12,-77.265 86.12,-77.265 C86.02000000000001,-77.196 85.922,-77.132 85.823,-77.063 C85.823,-77.063 0.001,-17.704 0.001,-17.704 C0.001,-17.704 -25.597,0.001 -25.597,0.001 C-25.597,0.001 -96.413,48.98 -96.413,48.98 C-96.413,48.98 -86.118,77.265 -86.118,77.265 C-86.018,77.196 -85.92099999999999,77.131 -85.82,77.063 C-85.82,77.063 0.001,17.706 0.001,17.706 C0.001,17.706 25.599,0.001 25.599,0.001z"></path></g><g opacity="1" transform="matrix(1,0,0,1,574.198,213.21)"><path style="display: block;" fill="rgb(27,55,92)" fill-opacity="1" d="M0 0 M-21.894,103.583 C33.984,103.583 75.156,61.757 75.156,0 C75.156,-61.758 33.984,-103.583 -21.894,-103.583 C-44.439,-103.583 -62.08200000000001,-97.046 -75.156,-86.262 C-75.156,-86.262 -75.156,-86.2 -75.156,-86.2 C-75.156,-86.2 -65.303,-59.129 -65.303,-59.129 C-52.315,-68.497 -38.618,-72.866 -22.219,-72.866 C16.009,-72.866 40.843,-42.805 40.843,0 C40.843,43.133 16.009,73.194 -22.219,73.194 C-38.623000000000005,73.194 -52.32299999999999,68.614 -65.314,59.159 C-65.314,59.159 -75.156,86.2 -75.156,86.2 C-75.156,86.2 -75.156,86.267 -75.156,86.267 C-62.08200000000001,97.051 -44.439,103.583 -21.894,103.583z"></path></g></g></g><g mask="url(#ly_XQaBp8p14e)"><g class="gauche3" style="user-select: none; display: block;" transform="matrix(1,0,0,1,-141,-108)" opacity="1"><g opacity="1" transform="matrix(1,0,0,1,396.39,213.209)"><path style="display: block;" fill="rgb(27,55,92)" fill-opacity="1" d="M0 0 M0,17.705 C0,17.705 85.822,77.062 85.822,77.062 C85.921,77.131 86.019,77.19600000000001 86.12,77.266 C86.12,77.266 96.414,48.978 96.414,48.978 C96.414,48.978 25.598,0 25.598,0 C25.598,0 0,-17.704 0,-17.704 C0,-17.704 -85.822,-77.064 -85.822,-77.064 C-85.922,-77.13199999999999 -86.01899999999999,-77.197 -86.118,-77.266 C-86.118,-77.266 -96.414,-48.98 -96.414,-48.98 C-96.414,-48.98 -25.599,0 -25.599,0 C-25.599,0 0,17.705 0,17.705z"></path></g><g opacity="1" transform="matrix(1,0,0,1,218.581,213.211)"><path style="display: block;" fill="rgb(27,55,92)" fill-opacity="1" d="M0 0 M65.303,59.129 C52.315,68.496 38.616,72.865 22.218,72.865 C-16.011,72.865 -40.843,42.805 -40.843,0 C-40.843,-43.134 -16.011,-73.194 22.218,-73.194 C38.620999999999995,-73.194 52.32299999999999,-68.615 65.314,-59.16 C65.314,-59.16 75.156,-86.2 75.156,-86.2 C75.156,-86.2 75.156,-86.267 75.156,-86.267 C62.083000000000006,-97.05199999999999 44.438,-103.583 21.894,-103.583 C-33.984,-103.583 -75.157,-61.758 -75.157,0 C-75.157,61.757 -33.984,103.583 21.894,103.583 C44.438,103.583 62.083000000000006,97.04599999999999 75.156,86.261 C75.156,86.261 75.156,86.2 75.156,86.2"></path></g></g></g><g mask="url(#ly_pmPs4fnZm2)"><g class="droite3" style="user-select: none; display: block;" transform="matrix(1,0,0,1,-141,-106)" opacity="1"><g opacity="1" transform="matrix(1,0,0,1,396.388,213.209)"><path style="display: block;" fill="rgb(27,55,92)" fill-opacity="1" d="M0 0 M25.599,0.001 C25.599,0.001 96.413,-48.979 96.413,-48.979 C96.413,-48.979 86.12,-77.265 86.12,-77.265 C86.02000000000001,-77.196 85.922,-77.132 85.823,-77.063 C85.823,-77.063 0.001,-17.704 0.001,-17.704 C0.001,-17.704 -25.597,0.001 -25.597,0.001 C-25.597,0.001 -96.413,48.98 -96.413,48.98 C-96.413,48.98 -86.118,77.265 -86.118,77.265 C-86.018,77.196 -85.92099999999999,77.131 -85.82,77.063 C-85.82,77.063 0.001,17.706 0.001,17.706 C0.001,17.706 25.599,0.001 25.599,0.001z"></path></g><g opacity="1" transform="matrix(1,0,0,1,574.198,213.21)"><path style="display: block;" fill="rgb(27,55,92)" fill-opacity="1" d="M0 0 M-21.894,103.583 C33.984,103.583 75.156,61.757 75.156,0 C75.156,-61.758 33.984,-103.583 -21.894,-103.583 C-44.439,-103.583 -62.08200000000001,-97.046 -75.156,-86.262 C-75.156,-86.262 -75.156,-86.2 -75.156,-86.2 C-75.156,-86.2 -65.303,-59.129 -65.303,-59.129 C-52.315,-68.497 -38.618,-72.866 -22.219,-72.866 C16.009,-72.866 40.843,-42.805 40.843,0 C40.843,43.133 16.009,73.194 -22.219,73.194 C-38.623000000000005,73.194 -52.32299999999999,68.614 -65.314,59.159 C-65.314,59.159 -75.156,86.2 -75.156,86.2 C-75.156,86.2 -75.156,86.267 -75.156,86.267 C-62.08200000000001,97.051 -44.439,103.583 -21.894,103.583z"></path></g></g></g></g></svg>
